<?xml version="1.0" encoding="UTF-8"?>
<svg id="Layer_1" xmlns="http://www.w3.org/2000/svg" version="1.1" xmlns:xlink="http://www.w3.org/1999/xlink" viewBox="0 0 1080 1080" width="16" height="16">
  <!-- Generator: Adobe Illustrator 30.4.0, SVG Export Plug-In . SVG Version: 2.1.4 Build 226)  -->
  <defs>
    <style>
      .st0 {
        fill: url(#linear-gradient2);
      }

      .st1 {
        fill: url(#linear-gradient1);
      }

      .st2 {
        fill: url(#linear-gradient4);
      }

      .st3 {
        fill: url(#linear-gradient5);
      }

      .st4 {
        fill: url(#linear-gradient3);
      }

      .st5 {
        fill: url(#linear-gradient);
      }
    </style>
    <linearGradient id="linear-gradient" x1="83.1" y1="112.84" x2="1019.67" y2="1398.07" gradientTransform="translate(0 1079.2756) scale(1 -1)" gradientUnits="userSpaceOnUse">
      <stop offset=".07" stop-color="#885901"/>
      <stop offset=".07" stop-color="#885901"/>
      <stop offset=".2" stop-color="#956f21"/>
      <stop offset=".32" stop-color="#9d7d34"/>
      <stop offset=".4" stop-color="#a0823c"/>
      <stop offset=".41" stop-color="#a4873f"/>
      <stop offset=".51" stop-color="#d4bd62"/>
      <stop offset=".59" stop-color="#f1df77"/>
      <stop offset=".63" stop-color="#fdec80"/>
      <stop offset=".89" stop-color="#885901"/>
    </linearGradient>
    <linearGradient id="linear-gradient1" x1="326.14" y1="-64.24" x2="1262.71" y2="1220.97" gradientTransform="translate(0 1079.2756) scale(1 -1)" gradientUnits="userSpaceOnUse">
      <stop offset=".07" stop-color="#885901"/>
      <stop offset=".07" stop-color="#885901"/>
      <stop offset=".2" stop-color="#956f21"/>
      <stop offset=".32" stop-color="#9d7d34"/>
      <stop offset=".4" stop-color="#a0823c"/>
      <stop offset=".41" stop-color="#a4873f"/>
      <stop offset=".51" stop-color="#d4bd62"/>
      <stop offset=".59" stop-color="#f1df77"/>
      <stop offset=".63" stop-color="#fdec80"/>
      <stop offset=".89" stop-color="#885901"/>
    </linearGradient>
    <linearGradient id="linear-gradient2" x1="22.05" y1="157.34" x2="958.62" y2="1442.57" gradientTransform="translate(0 1079.2756) scale(1 -1)" gradientUnits="userSpaceOnUse">
      <stop offset=".07" stop-color="#885901"/>
      <stop offset=".07" stop-color="#885901"/>
      <stop offset=".2" stop-color="#956f21"/>
      <stop offset=".32" stop-color="#9d7d34"/>
      <stop offset=".4" stop-color="#a0823c"/>
      <stop offset=".41" stop-color="#a4873f"/>
      <stop offset=".51" stop-color="#d4bd62"/>
      <stop offset=".59" stop-color="#f1df77"/>
      <stop offset=".63" stop-color="#fdec80"/>
      <stop offset=".89" stop-color="#885901"/>
    </linearGradient>
    <linearGradient id="linear-gradient3" x1="-28.52" y1="194.19" x2="908.05" y2="1479.42" gradientTransform="translate(0 1079.2756) scale(1 -1)" gradientUnits="userSpaceOnUse">
      <stop offset=".07" stop-color="#885901"/>
      <stop offset=".07" stop-color="#885901"/>
      <stop offset=".2" stop-color="#956f21"/>
      <stop offset=".32" stop-color="#9d7d34"/>
      <stop offset=".4" stop-color="#a0823c"/>
      <stop offset=".41" stop-color="#a4873f"/>
      <stop offset=".51" stop-color="#d4bd62"/>
      <stop offset=".59" stop-color="#f1df77"/>
      <stop offset=".63" stop-color="#fdec80"/>
      <stop offset=".89" stop-color="#885901"/>
    </linearGradient>
    <linearGradient id="linear-gradient4" x1="411.36" y1="-126.35" x2="1347.92" y2="1158.89" gradientTransform="translate(0 1079.2756) scale(1 -1)" gradientUnits="userSpaceOnUse">
      <stop offset=".07" stop-color="#885901"/>
      <stop offset=".07" stop-color="#885901"/>
      <stop offset=".2" stop-color="#956f21"/>
      <stop offset=".32" stop-color="#9d7d34"/>
      <stop offset=".4" stop-color="#a0823c"/>
      <stop offset=".41" stop-color="#a4873f"/>
      <stop offset=".51" stop-color="#d4bd62"/>
      <stop offset=".59" stop-color="#f1df77"/>
      <stop offset=".63" stop-color="#fdec80"/>
      <stop offset=".89" stop-color="#885901"/>
    </linearGradient>
    <linearGradient id="linear-gradient5" x1="326.14" y1="-64.24" x2="1262.71" y2="1220.97" gradientTransform="translate(0 1079.2756) scale(1 -1)" gradientUnits="userSpaceOnUse">
      <stop offset=".07" stop-color="#885901"/>
      <stop offset=".07" stop-color="#885901"/>
      <stop offset=".2" stop-color="#956f21"/>
      <stop offset=".32" stop-color="#9d7d34"/>
      <stop offset=".4" stop-color="#a0823c"/>
      <stop offset=".41" stop-color="#a4873f"/>
      <stop offset=".51" stop-color="#d4bd62"/>
      <stop offset=".59" stop-color="#f1df77"/>
      <stop offset=".63" stop-color="#fdec80"/>
      <stop offset=".89" stop-color="#885901"/>
    </linearGradient>
  </defs>
  <path class="st5" d="M458.95,590.11c-.21-.39-.36-.82-.57-1.24-14.41-32.83-31.83-64-51.95-93.18-68.77-99.85-168.81-176.51-285.96-215.92-47.18,75.72-74.42,165.15-74.42,260.89,0,209.73,130.66,388.93,315.02,460.57,29.39,11.45,60.13,20.12,91.94,25.76,3.9.69,7.76,1.33,11.72,1.93,10.9,1.66,21.93,2.99,33.01,3.93v-254.1c0-64.88-12.81-129.24-38.75-188.68l-.03.03ZM416.67,971.36l-82.7-101.51v-334.62c12.66,14.32,24.25,29.78,34.91,46.36.18.33.33.6.57.91,31.17,48.9,47.24,105.95,47.24,163.94v224.95l-.03-.03Z"/>
  <path class="st1" d="M498.49,908.63c-.24,1.54-.48,3.05-.79,4.59v-10.27c.24,1.87.48,3.78.79,5.68Z"/>
  <path class="st0" d="M907.98,211.21c-109.34,41.89-204.45,112.6-276,202.84-19,23.98-36.36,49.35-51.92,75.93-1.15,1.96-2.27,3.93-3.38,5.89-13.77,24.19-26.1,49.35-36.7,75.33-11.51-28.09-24.95-55.18-40.11-81.16h0c-.72-1.24-1.45-2.48-2.17-3.68-14.95-25.25-31.59-49.41-49.77-72.28h0c-71.55-90.25-166.63-160.95-275.97-202.87,17.16-19.18,35.76-36.94,55.69-53.25h0c101.03,44.22,189.98,111.03,260.35,193.99,3.26,3.84,6.46,7.7,9.66,11.63,15.01,18.45,29.15,37.69,42.28,57.63,11.51-17.43,23.77-34.37,36.7-50.68,4.95-6.25,10.03-12.44,15.19-18.57,70.4-82.97,159.35-149.78,260.38-193.99,19.93,16.28,38.57,34.07,55.72,53.25h.03Z"/>
  <path class="st4" d="M772.91,104.98c-72.61,37.51-138.72,85.81-196.23,142.83-12.66,12.5-24.92,25.49-36.7,38.84-13.53-15.31-27.64-30.08-42.28-44.28-56.21-54.64-120.42-101.09-190.67-137.42,57.66-30.93,122.17-50.68,190.67-56.48,13.95-1.21,28.03-1.81,42.28-1.81,12.35,0,24.59.45,36.7,1.33,70.58,5.19,137.03,25.22,196.23,56.93v.06Z"/>
  <path class="st2" d="M959.51,279.8c-117.19,39.38-217.22,116.07-285.96,215.95-20.12,29.18-37.54,60.32-51.98,93.12h0c-18.76,42.65-32.38,88.01-40.14,135.34v.06s-.03.24-.03.36c-3.32,19.99-4.71,40.2-4.71,60.47v248.24c13.02-.97,25.88-2.45,38.57-4.38,3.96-.6,7.82-1.24,11.75-1.93,31.8-5.65,62.52-14.32,91.91-25.76,184.39-71.67,315.05-250.84,315.05-460.57,0-95.74-27.24-185.18-74.42-260.89h-.03ZM745.97,869.85l-82.67,101.51v-224.95c0-57.96,16.04-115.04,47.24-163.94.18-.3.39-.57.57-.91,10.6-16.58,22.26-32.02,34.88-46.36v334.62l-.03.03Z"/>
  <path class="st3" d="M498.49,908.63c-.24,1.54-.48,3.05-.79,4.59v-10.27c.24,1.87.48,3.78.79,5.68Z"/>
</svg>