<?xml version="1.0" encoding="UTF-8"?>
<svg id="Layer_1" xmlns="http://www.w3.org/2000/svg" version="1.1" viewBox="0 0 390 31.49" fill="#d4af37">
  <!-- Generator: Adobe Illustrator 30.4.0, SVG Export Plug-In . SVG Version: 2.1.4 Build 226)  -->
  <path d="M12.92,21.81h-7.38v-13.76h7.08v1.55h-5.33v4.43h4.94v1.55h-4.94v4.67h5.64v1.55Z"/>
  <path d="M28.95,11.74l-3.39,5.07,3.32,5h-1.99l-1.94-3.23s-.13-.22-.2-.35c-.07-.13-.15-.26-.24-.44h-.04s-.07.13-.15.26c-.07.13-.17.31-.31.52l-1.97,3.23h-1.99l3.43-4.94-3.28-5.13h1.99l1.9,3.41c.09.13.15.26.22.39s.13.26.22.39h.04c.09-.13.15-.26.24-.39s.15-.26.24-.39l2.01-3.41h1.9-.02Z"/>
  <path d="M44.05,21.17c-.48.31-.96.52-1.44.68-.48.13-1,.2-1.55.2-1.44,0-2.62-.44-3.52-1.33-.92-.9-1.35-2.12-1.35-3.71s.46-2.97,1.38-4c.92-1,2.18-1.51,3.8-1.51.52,0,1,.07,1.49.2.46.13.94.33,1.42.59l-.72,1.25c-.37-.22-.72-.37-1.07-.46s-.72-.13-1.14-.13c-1.09,0-1.94.37-2.51,1.09-.59.72-.87,1.66-.87,2.8,0,1.22.31,2.16.92,2.82s1.4.98,2.36.98c.33,0,.66-.04,1-.15.35-.09.7-.26,1.07-.5l.74,1.2h0Z"/>
  <path d="M60.45,17.15h-7.08c0,1.11.33,1.97.9,2.58s1.35.9,2.38.9c.44,0,.9-.07,1.35-.2.46-.13.94-.37,1.4-.68l.79,1.18c-.59.39-1.16.66-1.75.85s-1.25.26-1.94.26c-1.53,0-2.71-.46-3.56-1.35s-1.29-2.16-1.29-3.8.42-2.93,1.29-3.91c.87-.98,1.99-1.49,3.36-1.49s2.34.44,3.08,1.29c.72.85,1.09,2.05,1.09,3.56v.81h-.02ZM58.73,15.8c0-.92-.22-1.64-.68-2.16-.44-.5-1.05-.76-1.81-.76s-1.4.26-1.92.79-.83,1.25-.96,2.14c0,0,5.37,0,5.37,0Z"/>
  <path d="M68.88,21.81V7.26h1.7v14.55h-1.7Z"/>
  <path d="M79.81,21.81V7.26h1.7v14.55h-1.7Z"/>
  <path d="M98.9,17.15h-7.08c0,1.11.33,1.97.9,2.58s1.35.9,2.38.9c.44,0,.9-.07,1.35-.2.46-.13.94-.37,1.4-.68l.79,1.18c-.59.39-1.16.66-1.75.85s-1.25.26-1.94.26c-1.53,0-2.71-.46-3.56-1.35s-1.29-2.16-1.29-3.8.42-2.93,1.29-3.91c.87-.98,1.99-1.49,3.36-1.49s2.34.44,3.08,1.29c.72.85,1.09,2.05,1.09,3.56v.81h-.02ZM97.17,15.8c0-.92-.22-1.64-.68-2.16-.44-.5-1.05-.76-1.81-.76s-1.4.26-1.92.79-.83,1.25-.96,2.14c0,0,5.37,0,5.37,0Z"/>
  <path d="M115.76,21.81h-1.7v-5.75c0-1.05-.2-1.83-.57-2.36s-.96-.79-1.73-.79-1.44.31-1.97.9c-.52.59-.79,1.33-.79,2.25v5.75h-1.7v-10.07h1.7v1.66h.04c.37-.63.85-1.11,1.4-1.42s1.18-.48,1.9-.48c1.09,0,1.94.35,2.53,1.07s.87,1.75.87,3.08v6.16h0Z"/>
  <path d="M131.99,21.17c-.48.31-.96.52-1.44.68-.48.13-1,.2-1.55.2-1.44,0-2.62-.44-3.52-1.33-.92-.9-1.35-2.12-1.35-3.71s.46-2.97,1.38-4c.92-1,2.18-1.51,3.8-1.51.52,0,1,.07,1.49.2.46.13.94.33,1.42.59l-.72,1.25c-.37-.22-.72-.37-1.07-.46s-.72-.13-1.14-.13c-1.09,0-1.94.37-2.51,1.09-.59.72-.87,1.66-.87,2.8,0,1.22.31,2.16.92,2.82s1.4.98,2.36.98c.33,0,.66-.04,1-.15.35-.09.7-.26,1.07-.5l.74,1.2h0Z"/>
  <path d="M148.38,17.15h-7.08c0,1.11.33,1.97.9,2.58s1.35.9,2.38.9c.44,0,.9-.07,1.35-.2.46-.13.94-.37,1.4-.68l.79,1.18c-.59.39-1.16.66-1.75.85s-1.25.26-1.94.26c-1.53,0-2.71-.46-3.56-1.35s-1.29-2.16-1.29-3.8.42-2.93,1.29-3.91c.87-.98,1.99-1.49,3.36-1.49s2.34.44,3.08,1.29c.72.85,1.09,2.05,1.09,3.56v.81h-.02ZM146.67,15.8c0-.92-.22-1.64-.68-2.16-.44-.5-1.05-.76-1.81-.76s-1.4.26-1.92.79-.83,1.25-.96,2.14c0,0,5.37,0,5.37,0Z"/>
  <path d="M168.32,21.81v-13.76h4.02c1.22,0,2.18.28,2.88.85s1.07,1.33,1.07,2.32c0,.76-.22,1.44-.63,2.01-.42.57-1,.98-1.75,1.22v.04c.92.11,1.66.46,2.23,1.05s.83,1.35.83,2.29c0,1.18-.42,2.14-1.27,2.86s-1.92,1.09-3.25,1.09h-4.13v.02ZM170.07,9.57v4.35h1.64c.85,0,1.53-.2,2.03-.61s.74-1,.74-1.75c0-.66-.22-1.16-.66-1.49s-1.09-.48-1.94-.48h-1.81v-.02ZM170.07,15.45v4.83h2.14c.92,0,1.64-.22,2.16-.66.5-.44.76-1.05.76-1.79s-.26-1.38-.81-1.77-1.33-.59-2.4-.59h-1.86v-.02Z"/>
  <path d="M193.75,17.15h-7.08c0,1.11.33,1.97.9,2.58s1.35.9,2.38.9c.44,0,.9-.07,1.35-.2.46-.13.94-.37,1.4-.68l.79,1.18c-.59.39-1.16.66-1.75.85s-1.25.26-1.94.26c-1.53,0-2.71-.46-3.56-1.35s-1.29-2.16-1.29-3.8.42-2.93,1.29-3.91c.87-.98,1.99-1.49,3.36-1.49s2.34.44,3.08,1.29c.72.85,1.09,2.05,1.09,3.56v.81h-.02ZM192.02,15.8c0-.92-.22-1.64-.68-2.16-.44-.5-1.05-.76-1.81-.76s-1.4.26-1.92.79-.83,1.25-.96,2.14c0,0,5.37,0,5.37,0Z"/>
  <path d="M210.33,11.74l-4.7,11.88c-.37.94-.85,1.66-1.42,2.14s-1.27.72-2.05.72c-.22,0-.42,0-.59-.04-.17-.02-.35-.07-.52-.11l.33-1.42c.13.04.24.09.37.09.11,0,.22.02.35.02.42,0,.79-.11,1.07-.33s.52-.55.7-.96l.81-1.92-3.95-10.05h1.9l2.67,7.62s.04.17.09.31c.04.13.09.31.13.5h.07s.04-.2.09-.33c.04-.13.09-.28.13-.46l2.8-7.65h1.75v-.02Z"/>
  <path d="M222.34,22.05c-1.51,0-2.71-.48-3.6-1.42-.9-.94-1.33-2.21-1.33-3.76,0-1.68.46-2.99,1.38-3.95s2.18-1.42,3.78-1.42c1.51,0,2.69.46,3.54,1.38.85.94,1.29,2.21,1.29,3.84s-.46,2.91-1.38,3.89-2.14,1.44-3.67,1.44ZM222.45,20.63c1.03,0,1.81-.33,2.36-1s.83-1.62.83-2.84-.28-2.18-.83-2.86-1.33-1-2.36-1-1.81.35-2.42,1.05c-.59.7-.9,1.66-.9,2.86s.31,2.12.9,2.8,1.4,1,2.4,1h.02Z"/>
  <path d="M244.39,21.81h-1.7v-5.75c0-1.05-.2-1.83-.57-2.36s-.96-.79-1.73-.79-1.44.31-1.97.9c-.52.59-.79,1.33-.79,2.25v5.75h-1.7v-10.07h1.7v1.66h.04c.37-.63.83-1.11,1.4-1.42s1.18-.48,1.92-.48c1.09,0,1.94.35,2.53,1.07s.87,1.75.87,3.08v6.16h-.02Z"/>
  <path d="M260.33,20.1c-.37.63-.85,1.11-1.42,1.44s-1.25.48-2.01.48c-1.27,0-2.27-.46-3.04-1.35s-1.14-2.14-1.14-3.69c0-1.66.42-3.01,1.27-4,.83-1,1.94-1.51,3.34-1.51.7,0,1.29.13,1.79.39s.92.68,1.22,1.22h.04v-5.88h1.7v14.55h-1.7v-1.68h-.07v.02ZM254.48,16.91c0,1.16.26,2.05.81,2.71s1.25.98,2.14.98,1.62-.33,2.16-.96.81-1.44.81-2.42v-1.44c0-.81-.26-1.49-.79-2.05-.52-.55-1.2-.83-2.01-.83-.96,0-1.73.35-2.27,1.07-.55.72-.83,1.68-.83,2.93h0l-.02.02Z"/>
  <path d="M282.81,21.81v-13.76h4.02c1.22,0,2.18.28,2.88.85s1.07,1.33,1.07,2.32c0,.76-.22,1.44-.63,2.01-.42.57-1,.98-1.75,1.22v.04c.92.11,1.66.46,2.23,1.05.55.59.83,1.35.83,2.29,0,1.18-.44,2.14-1.27,2.86s-1.92,1.09-3.25,1.09h-4.13v.02ZM284.56,9.57v4.35h1.64c.85,0,1.53-.2,2.03-.61s.74-1,.74-1.75c0-.66-.22-1.16-.66-1.49s-1.09-.48-1.94-.48h-1.81v-.02ZM284.56,15.45v4.83h2.14c.92,0,1.64-.22,2.16-.66.5-.44.76-1.05.76-1.79s-.26-1.38-.81-1.77-1.33-.59-2.4-.59h-1.86v-.02Z"/>
  <path d="M304.35,22.05c-1.51,0-2.71-.48-3.6-1.42-.9-.94-1.33-2.21-1.33-3.76,0-1.68.46-2.99,1.38-3.95s2.18-1.42,3.78-1.42c1.51,0,2.69.46,3.54,1.38.85.94,1.29,2.21,1.29,3.84s-.46,2.91-1.38,3.89-2.14,1.44-3.67,1.44ZM304.46,20.63c1.03,0,1.81-.33,2.36-1s.83-1.62.83-2.84-.28-2.18-.83-2.86-1.33-1-2.36-1-1.81.35-2.42,1.05c-.59.7-.9,1.66-.9,2.86s.31,2.12.9,2.8,1.4,1,2.4,1h.02Z"/>
  <path d="M323.03,13.18c-.13-.04-.24-.07-.35-.09s-.24-.02-.39-.02c-.81,0-1.46.35-1.92,1.03-.46.7-.7,1.55-.7,2.6v5.09h-1.7v-10.07h1.7v1.99h.04c.24-.72.59-1.25,1.05-1.62.48-.37,1-.55,1.64-.55.2,0,.37,0,.52.02.15,0,.28.04.39.09l-.26,1.51h0l-.02.02Z"/>
  <path d="M338.01,20.1c-.37.63-.85,1.11-1.42,1.44-.57.33-1.25.48-2.01.48-1.27,0-2.27-.46-3.04-1.35s-1.14-2.14-1.14-3.69c0-1.66.42-3.01,1.27-4,.83-1,1.94-1.51,3.34-1.51.7,0,1.29.13,1.79.39s.92.68,1.22,1.22h.04v-5.88h1.7v14.55h-1.7v-1.68h-.07v.02ZM332.16,16.91c0,1.16.26,2.05.81,2.71s1.25.98,2.14.98,1.62-.33,2.16-.96.81-1.44.81-2.42v-1.44c0-.81-.26-1.49-.79-2.05-.52-.55-1.2-.83-2.01-.83-.96,0-1.73.35-2.27,1.07-.55.72-.83,1.68-.83,2.93h0l-.02.02Z"/>
  <path d="M357.15,17.15h-7.08c.02,1.11.33,1.97.9,2.58.57.59,1.35.9,2.36.9.44,0,.9-.07,1.35-.2s.92-.37,1.4-.68l.79,1.18c-.59.39-1.18.66-1.75.85-.59.17-1.25.26-1.94.26-1.53,0-2.71-.46-3.56-1.35s-1.29-2.16-1.29-3.8.42-2.93,1.29-3.91c.87-.98,1.99-1.49,3.36-1.49s2.34.44,3.08,1.29c.72.85,1.09,2.05,1.09,3.56,0,0,0,.81,0,.81ZM355.44,15.8c0-.92-.22-1.64-.66-2.16-.44-.5-1.05-.76-1.81-.76s-1.4.26-1.92.79-.83,1.25-.96,2.14h5.35,0Z"/>
  <path d="M370.65,13.18c-.13-.04-.24-.07-.35-.09s-.24-.02-.39-.02c-.81,0-1.46.35-1.92,1.03-.46.7-.7,1.55-.7,2.6v5.09h-1.7v-10.07h1.7v1.99h.04c.24-.72.59-1.25,1.05-1.62.48-.37,1-.55,1.64-.55.2,0,.37,0,.5.02.15,0,.28.04.39.09l-.26,1.51h0v.02Z"/>
  <path d="M377.81,21.04l.81-1.29c.42.28.83.5,1.27.63s.87.22,1.38.22c.68,0,1.18-.13,1.53-.37s.52-.61.52-1.11c0-.42-.15-.74-.46-1.03-.31-.26-.81-.5-1.46-.68-1.25-.31-2.1-.72-2.58-1.2-.46-.48-.7-1.09-.7-1.83,0-.85.33-1.55.96-2.1s1.53-.83,2.64-.83c.55,0,1.05.07,1.53.2s.96.37,1.46.68l-.74,1.27c-.46-.28-.85-.48-1.2-.59s-.72-.17-1.09-.17c-.63,0-1.11.11-1.46.35s-.5.59-.5,1.03.17.76.5,1c.33.22.9.44,1.66.63,1.03.28,1.79.66,2.32,1.16.5.48.76,1.14.76,1.94,0,.92-.33,1.66-1,2.21s-1.57.83-2.73.83c-.63,0-1.22-.09-1.79-.26s-1.09-.42-1.57-.74l-.04.07h0Z"/>
</svg>